<?xml version="1.0" encoding="UTF-8" standalone="no"?>
<svg width="485px" height="422px" viewBox="0 0 485 422" version="1.1" xmlns="http://www.w3.org/2000/svg" xmlns:xlink="http://www.w3.org/1999/xlink" xmlns:sketch="http://www.bohemiancoding.com/sketch/ns">
    <!-- Generator: Sketch 3.3.2 (12043) - http://www.bohemiancoding.com/sketch -->
    <title>LOGO V11F Copy 7</title>
    <desc>Created with Sketch.</desc>
    <defs>
        <path id="path-1" d="M0,0.545454979 L378.5,0.545454979 L222.5,386.575745 L0,386.575759 L0,0.545454979 Z"></path>
        <path id="path-3" d="M192.073881,0.732972009 L299.473931,115.094857 L299.473931,366.872773 L0.385430126,366.872773 L192.073881,0.732972009 Z"></path>
    </defs>
    <g id="Page-1" stroke="none" stroke-width="1" fill="none" fill-rule="evenodd" sketch:type="MSPage">
        <g id="LogoTexF" sketch:type="MSArtboardGroup" transform="translate(-38.000000, -11.000000)">
            <g id="LOGO-V11F-Copy-7" sketch:type="MSLayerGroup" transform="translate(33.000000, 8.000000)">
                <g id="TEXPOSOU" transform="translate(0.000000, 28.454545)">
                    <mask id="mask-2" sketch:name="Mask" fill="white">
                        <use xlink:href="#path-1"></use>
                    </mask>
                    <use id="Mask" opacity="0" fill-opacity="0" fill="#FFFFFF" sketch:type="MSShapeGroup" xlink:href="#path-1"></use>
                    <path d="M21.9959627,211.272727 L21.9959627,132.245726 L5.82675523,132.245726 L5.82675523,120.725165 L51.1005362,120.725165 L51.1005362,132.245726 L34.9313287,132.245726 L34.9313287,211.272727 L21.9959627,211.272727 Z M57.5176904,211.272727 L57.5176904,120.725165 L93.0899469,120.725165 L93.0899469,130.42669 L70.4530564,130.42669 L70.4530564,159.531263 L86.6222639,159.531263 L86.6222639,169.232788 L70.4530564,169.232788 L70.4530564,201.571203 L93.0899469,201.571203 L93.0899469,211.272727 L57.5176904,211.272727 Z M95.8185006,211.272727 L111.886651,164.331497 L95.7174431,120.725165 L108.652809,120.725165 L121.588175,156.297422 L134.523541,120.725165 L147.458907,120.725165 L131.2897,164.129382 L147.256792,211.272727 L134.422484,211.272727 L121.588175,172.466629 L108.753867,211.272727 L95.8185006,211.272727 Z M168.024118,159.531263 L171.257959,159.531263 C174.188643,159.531263 176.588736,159.362836 178.45831,159.025976 C180.327883,158.689115 181.978474,158.057512 183.410129,157.131147 C184.841785,156.204781 185.869193,154.882625 186.492385,153.164638 C187.115576,151.446651 187.427167,149.257093 187.427167,146.595897 C187.427167,143.36204 187.191368,140.742991 186.719764,138.738673 C186.24816,136.734355 185.380758,135.092186 184.117532,133.812118 C182.854307,132.532049 181.220559,131.647804 179.216241,131.159357 C177.211923,130.67091 174.559189,130.42669 171.257959,130.42669 L168.024118,130.42669 L168.024118,159.531263 Z M155.088752,211.272727 L155.088752,120.725165 L177.725642,120.725165 C192.816978,120.725165 200.362533,129.348656 200.362533,146.595897 C200.362533,153.973135 198.417194,159.590194 194.526459,163.447243 C190.635724,167.304292 185.035508,169.232788 177.725642,169.232788 L168.024118,169.232788 L168.024118,211.272727 L155.088752,211.272727 Z M231.033498,212.182245 C226.485886,212.182245 222.586788,211.491692 219.336087,210.110565 C216.085387,208.729439 213.500023,206.708308 211.57992,204.047113 C209.659818,201.385917 208.261869,198.261586 207.386032,194.674025 C206.510196,191.086464 206.072284,186.917882 206.072284,182.168154 L206.072284,149.324451 C206.072284,144.574723 206.510196,140.431405 207.386032,136.894373 C208.261869,133.357341 209.659818,130.283538 211.57992,127.672872 C213.500023,125.062205 216.085387,123.100024 219.336087,121.78627 C222.586788,120.472515 226.485886,119.815647 231.033498,119.815647 C239.859235,119.815647 246.225797,122.342061 250.133375,127.394963 C254.040953,132.447866 255.994712,139.757622 255.994712,149.324451 L255.994712,182.168154 C255.994712,186.85051 255.548379,190.985407 254.6557,194.572968 C253.76302,198.160529 252.35665,201.293281 250.436547,203.97132 C248.516444,206.649358 245.931081,208.687331 242.680381,210.085301 C239.42968,211.483271 235.547425,212.182245 231.033498,212.182245 L231.033498,212.182245 Z M231.033498,201.571203 C235.581111,201.571203 238.722285,200.20694 240.457114,197.478372 C242.191944,194.749805 243.059346,190.724386 243.059346,185.401995 L243.059346,146.09061 C243.059346,140.835591 242.200366,136.911229 240.482379,134.317405 C238.764392,131.723582 235.614797,130.42669 231.033498,130.42669 C226.4522,130.42669 223.302605,131.723582 221.584618,134.317405 C219.866631,136.911229 219.00765,140.835591 219.00765,146.09061 L219.00765,185.401995 C219.00765,190.724386 219.875052,194.749805 221.609882,197.478372 C223.344712,200.20694 226.485886,201.571203 231.033498,201.571203 L231.033498,201.571203 Z M290.910095,212.182245 C282.758079,212.182245 276.53468,209.790574 272.239713,205.007159 C267.944746,200.223745 265.544653,193.688756 265.039363,185.401995 L277.974729,182.168154 C278.614763,195.103584 282.926509,201.571203 290.910095,201.571203 C297.37781,201.571203 300.611619,198.337394 300.611619,191.869678 C300.611619,189.949575 300.350556,188.172665 299.828423,186.538893 C299.30629,184.905121 298.506259,183.406116 297.428306,182.041832 C296.350354,180.677548 295.373474,179.582769 294.497638,178.757462 C293.621801,177.932154 292.425966,176.913167 290.910095,175.700471 L274.740887,162.765105 C271.776518,160.44077 269.41011,157.484866 267.641595,153.897305 C265.873079,150.309744 264.988834,146.225376 264.988834,141.644078 C264.988834,134.974246 267.060493,129.668778 271.203873,125.727514 C275.347253,121.78625 280.837992,119.815647 287.676253,119.815647 C295.019805,119.815647 300.85582,121.609401 305.184473,125.196962 C309.513126,128.784523 312.182703,133.862614 313.193284,140.431387 C313.294342,141.138793 313.412241,142.115673 313.546985,143.362056 L300.611619,146.595897 C300.577933,146.023235 300.493719,145.164254 300.358975,144.01893 C299.786313,139.909236 298.497842,136.616477 296.493524,134.140555 C294.489206,131.664632 291.550145,130.42669 287.676253,130.42669 C284.57714,130.42669 282.185468,131.294092 280.501167,133.028922 C278.816867,134.763752 277.974729,137.180687 277.974729,140.279801 C277.974729,145.366389 280.130602,149.627607 284.442412,153.06358 L300.611619,165.998946 C309.23524,172.971952 313.546985,181.309116 313.546985,191.010689 C313.546985,197.646835 311.50059,202.834403 307.407739,206.573551 C303.314888,210.312699 297.815728,212.182245 290.910095,212.182245 L290.910095,212.182245 Z" id="TEXPOS" fill="#000000" sketch:type="MSShapeGroup" mask="url(#mask-2)"></path>
                </g>
                <g id="OU" transform="translate(363.015419, 227.238525) rotate(-5.000000) translate(-363.015419, -227.238525) translate(213.015419, 43.738525)">
                    <mask id="mask-4" sketch:name="Mask" fill="white">
                        <use xlink:href="#path-3"></use>
                    </mask>
                    <use id="Mask" opacity="0" fill-opacity="0" fill="#FFFFFF" sketch:type="MSShapeGroup" xlink:href="#path-3"></use>
                    <path d="M116.401771,228.047509 C111.285707,228.047509 106.899222,227.270637 103.242184,225.71687 C99.5851457,224.163102 96.6766122,221.88933 94.5164964,218.895485 C92.3563805,215.90164 90.7836881,212.386768 89.7983721,208.350762 C88.8130561,204.314756 88.3204055,199.625101 88.3204055,194.281657 L88.3204055,157.332491 C88.3204055,151.989046 88.8130561,147.327814 89.7983721,143.348653 C90.7836881,139.369492 92.3563805,135.911464 94.5164964,132.974464 C96.6766122,130.037465 99.5851457,127.830011 103.242184,126.352037 C106.899222,124.874063 111.285707,124.135087 116.401771,124.135087 C126.330725,124.135087 133.493107,126.977302 137.889132,132.661817 C142.285157,138.346333 144.483137,146.569808 144.483137,157.332491 L144.483137,194.281657 C144.483137,199.549308 143.981012,204.201066 142.976748,208.237072 C141.972484,212.273078 140.390317,215.797425 138.230201,218.810218 C136.070086,221.823011 133.161552,224.115731 129.504514,225.688447 C125.847476,227.261163 121.479938,228.047509 116.401771,228.047509 L116.401771,228.047509 Z M116.401771,216.110087 C121.517835,216.110087 125.051656,214.57529 127.00334,211.505652 C128.955023,208.436014 129.93085,203.907418 129.93085,197.919728 L129.93085,153.694419 C129.93085,147.782523 128.964497,143.367616 127.031762,140.449565 C125.099027,137.531513 121.555732,136.07251 116.401771,136.07251 C111.247811,136.07251 107.704516,137.531513 105.771781,140.449565 C103.839045,143.367616 102.872692,147.782523 102.872692,153.694419 L102.872692,197.919728 C102.872692,203.907418 103.848519,208.436014 105.800203,211.505652 C107.751887,214.57529 111.285707,216.110087 116.401771,216.110087 L116.401771,216.110087 Z M185.525133,228.104354 C181.091211,228.104354 177.187903,227.516963 173.81509,226.342163 C170.442278,225.167363 167.666381,223.528353 165.487317,221.425082 C163.308252,219.321811 161.536605,216.678551 160.172321,213.495223 C158.808038,210.311894 157.841684,206.872814 157.273233,203.177879 C156.704781,199.482944 156.42056,195.304888 156.42056,190.643585 L156.42056,125.158295 L170.972847,125.158295 L170.972847,190.643585 C170.972847,193.789017 171.039165,196.422803 171.171804,198.545022 C171.304442,200.667241 171.654982,202.931539 172.223434,205.337984 C172.791885,207.744429 173.578231,209.667661 174.582496,211.107738 C175.58676,212.547815 177.007868,213.741546 178.845861,214.688965 C180.683854,215.636384 182.910256,216.110087 185.525133,216.110087 C188.14001,216.110087 190.366412,215.636384 192.204406,214.688965 C194.042399,213.741546 195.463506,212.547815 196.467771,211.107738 C197.472035,209.667661 198.258381,207.744429 198.826833,205.337984 C199.395284,202.931539 199.745824,200.667241 199.878463,198.545022 C200.011102,196.422803 200.07742,193.789017 200.07742,190.643585 L200.07742,125.158295 L214.629707,125.158295 L214.629707,190.643585 C214.629707,195.304888 214.345485,199.482944 213.777034,203.177879 C213.208582,206.872814 212.242229,210.311894 210.877945,213.495223 C209.513662,216.678551 207.742014,219.321811 205.56295,221.425082 C203.383886,223.528353 200.607989,225.167363 197.235177,226.342163 C193.862364,227.516963 189.959055,228.104354 185.525133,228.104354 L185.525133,228.104354 Z M181.887062,118.33691 L167.334775,96.50848 L181.887062,96.50848 L189.163205,118.33691 L181.887062,118.33691 Z M242.938452,227.024302 L242.938452,212.472015 L257.490739,212.472015 L257.490739,227.024302 L242.938452,227.024302 Z M242.938452,205.195872 L242.938452,187.005513 C245.325949,185.565436 247.400766,184.239069 249.162965,183.026372 C250.925165,181.813676 252.857871,180.269405 254.961142,178.393515 C257.064413,176.517625 258.769742,174.632289 260.07718,172.737451 C261.384619,170.842612 262.493083,168.606736 263.402605,166.029756 C264.312128,163.452776 264.766882,160.743197 264.766882,157.90094 C264.766882,150.62476 261.128847,146.986725 253.852667,146.986725 C249.759816,146.986725 246.917601,148.208877 245.325937,150.653219 C243.734272,153.09756 242.938452,156.726122 242.938452,161.539011 L228.386165,161.539011 L228.386165,157.90094 C228.386165,149.601547 230.574671,143.282356 234.951748,138.943176 C239.328825,134.603995 245.629068,132.434438 253.852667,132.434438 C262.15206,132.434438 268.480725,134.622944 272.838854,139.00002 C277.196982,143.377097 279.376014,149.677341 279.376014,157.90094 C279.376014,165.935055 277.452782,172.576364 273.60626,177.825067 C269.759737,183.073769 264.387951,187.346566 257.490739,190.643585 L257.490739,205.195872 L242.938452,205.195872 Z" id="OÙ?" fill="#7ABCCC" sketch:type="MSShapeGroup" mask="url(#mask-4)"></path>
                </g>
                <path d="M223.258516,424.757576 L398.03677,3.24242424" id="Path-9-Copy" stroke="#000000" sketch:type="MSShapeGroup"></path>
            </g>
        </g>
    </g>
</svg>